Coordinates
nRows=140
nColumns=2
inDegrees=yes
endheader
time	ankle_angle_r	
2.4375	 -0.351003	
2.5	 -0.371312	
2.5625	 -0.409569	
2.625	 -0.423935	
2.6875	 -0.416973	
2.75	 -0.406227	
2.8125	 -0.394170	
2.875	 -0.387080	
2.9375	 -0.381030	
3	 -0.391485	
3.0625	 -0.409802	
3.125	 -0.413947	
3.1875	 -0.423479	
3.25	 -0.427385	
3.3125	 -0.410953	
3.375	 -0.392709	
3.4375	 -0.383895	
3.5	 -0.396773	
3.5625	 -0.410141	
3.625	 -0.410446	
3.6875	 -0.422744	
3.75	 -0.425378	
3.8125	 -0.403985	
3.875	 -0.388235	
3.9375	 -0.386949	
4	 -0.399726	
4.0625	 -0.409509	
4.125	 -0.404062	
4.1875	 -0.405379	
4.25	 -0.408819	
4.3125	 -0.399069	
4.375	 -0.377771	
4.4375	 -0.356628	
4.5	 -0.364753	
4.5625	 -0.381898	
4.625	 -0.364365	
4.6875	 -0.347294	
4.75	 -0.369193	
4.8125	 -0.378747	
4.875	 -0.359327	
4.9375	 -0.380160	
5	 -0.414387	
5.0625	 -0.390544	
5.125	 -0.361070	
5.1875	 -0.358372	
5.25	 -0.339371	
5.3125	 -0.322704	
5.375	 -0.329325	
5.4375	 -0.331190	
5.5	 -0.332120	
5.5625	 -0.354540	
5.625	 -0.390936	
5.6875	 -0.399789	
5.75	 -0.377632	
5.8125	 -0.370699	
5.875	 -0.379721	
5.9375	 -0.398920	
6	 -0.422796	
6.0625	 -0.424036	
6.125	 -0.417260	
6.1875	 -0.402059	
6.25	 -0.379634	
6.3125	 -0.381120	
6.375	 -0.381407	
6.4375	 -0.378046	
6.5	 -0.399210	
6.5625	 -0.414529	
6.625	 -0.400726	
6.6875	 -0.370672	
6.75	 -0.354140	
6.8125	 -0.351757	
6.875	 -0.333265	
6.9375	 -0.341647	
7	 -0.389345	
7.0625	 -0.402487	
7.125	 -0.381446	
7.1875	 -0.351166	
7.25	 -0.326441	
7.3125	 -0.330477	
7.375	 -0.334425	
7.4375	 -0.336145	
7.5	 -0.334382	
7.5625	 -0.335397	
7.625	 -0.381374	
7.6875	 -0.404231	
7.75	 -0.379301	
7.8125	 -0.375326	
7.875	 -0.375039	
7.9375	 -0.386877	
8	 -0.419947	
8.0625	 -0.427261	
8.125	 -0.421686	
8.1875	 -0.413408	
8.25	 -0.401218	
8.3125	 -0.390898	
8.375	 -0.371301	
8.4375	 -0.382494	
8.5	 -0.422690	
8.5625	 -0.432013	
8.625	 -0.421009	
8.6875	 -0.409061	
8.75	 -0.399643	
8.8125	 -0.392041	
8.875	 -0.380894	
8.9375	 -0.397645	
9	 -0.420735	
9.0625	 -0.417109	
9.125	 -0.422789	
9.1875	 -0.417156	
9.25	 -0.373959	
9.3125	 -0.337386	
9.375	 -0.329485	
9.4375	 -0.337798	
9.5	 -0.343923	
9.5625	 -0.359897	
9.625	 -0.389481	
9.6875	 -0.390503	
9.75	 -0.363235	
9.8125	 -0.334338	
9.875	 -0.325907	
9.9375	 -0.352773	
10	 -0.372135	
10.0625	 -0.357111	
10.125	 -0.342098	
10.1875	 -0.347716	
10.25	 -0.350855	
10.3125	 -0.334951	
10.375	 -0.343301	
10.4375	 -0.381673	
10.5	 -0.398236	
10.5625	 -0.409247	
10.625	 -0.415167	
10.6875	 -0.391703	
10.75	 -0.379690	
10.8125	 -0.385783	
10.875	 -0.403513	
10.9375	 -0.433620	
11	 -0.427973	
11.0625	 -0.405116	
11.125	 -0.427200	
